<svg width="20" height="20" viewBox="0 0 20 20" fill="none" xmlns="http://www.w3.org/2000/svg">
<path fill-rule="evenodd" clip-rule="evenodd" d="M9.16666 1.66669H4.99999C3.15916 1.66669 1.66666 3.15919 1.66666 5.00002V15C1.66666 16.8409 3.15916 18.3334 4.99999 18.3334H15C16.8408 18.3334 18.3333 16.8409 18.3333 15C18.3333 13.1075 18.3333 10.8334 18.3333 10.8334C18.3333 10.3734 17.96 10 17.5 10C17.04 10 16.6667 10.3734 16.6667 10.8334V15C16.6667 15.92 15.92 16.6667 15 16.6667C12.225 16.6667 7.77416 16.6667 4.99999 16.6667C4.07916 16.6667 3.33332 15.92 3.33332 15C3.33332 12.225 3.33332 7.77419 3.33332 5.00002C3.33332 4.07919 4.07916 3.33335 4.99999 3.33335H9.16666C9.62666 3.33335 9.99999 2.96002 9.99999 2.50002C9.99999 2.04002 9.62666 1.66669 9.16666 1.66669ZM15.4883 3.33335H12.5C12.04 3.33335 11.6667 2.96002 11.6667 2.50002C11.6667 2.04002 12.04 1.66669 12.5 1.66669H17.5C17.96 1.66669 18.3333 2.04002 18.3333 2.50002V7.50002C18.3333 7.96002 17.96 8.33335 17.5 8.33335C17.04 8.33335 16.6667 7.96002 16.6667 7.50002V4.51169L10.5892 10.5892C10.2642 10.9142 9.73582 10.9142 9.41082 10.5892C9.08499 10.2642 9.08499 9.73585 9.41082 9.41085L15.4883 3.33335Z" fill="#12CDD9"/>
</svg>
